Coordinates
version=1
nRows=11
nColumns=63
inDegrees=yes

Units are S.I. units (second, meters, Newtons, ...)
If the header above contains a line with 'inDegrees', this indicates whether rotational values are in degrees (yes) or radians (no).

endheader
time	pelvis_tilt	pelvis_list	pelvis_rotation	pelvis_tx	pelvis_ty	pelvis_tz	hip_flexion_r	hip_adduction_r	hip_rotation_r	knee_angle_r	knee_angle_r_beta	ankle_angle_r	subtalar_angle_r	mtp_angle_r	hip_flexion_l	hip_adduction_l	hip_rotation_l	knee_angle_l	knee_angle_l_beta	ankle_angle_l	subtalar_angle_l	mtp_angle_l	L5_S1_Flex_Ext	L5_S1_Lat_Bending	L5_S1_axial_rotation	L4_L5_Flex_Ext	L4_L5_Lat_Bending	L4_L5_axial_rotation	L3_L4_Flex_Ext	L3_L4_Lat_Bending	L3_L4_axial_rotation	L2_L3_Flex_Ext	L2_L3_Lat_Bending	L2_L3_axial_rotation	L1_L2_Flex_Ext	L1_L2_Lat_Bending	L1_L2_axial_rotation	L1_T12_Flex_Ext	L1_T12_Lat_Bending	L1_T12_axial_rotation	Abs_r3	Abs_r2	Abs_r1	Abs_t1	Abs_t2	neck_flexion	neck_bending	neck_rotation	arm_flex_r	arm_add_r	arm_rot_r	elbow_flex_r	pro_sup_r	wrist_flex_r	wrist_dev_r	arm_flex_l	arm_add_l	arm_rot_l	elbow_flex_l	pro_sup_l	wrist_flex_l	wrist_dev_l
2.111111	-0.486331	2.121423	79.951989	0.363771	0.833394	0.640317	0.660851	-0.867844	8.770318	5.078826	0.088642	32.347730	2.124978	0.000000	1.468684	-4.057278	-19.429861	8.832879	0.154163	38.868828	16.801311	0.000000	-0.006911	0.097644	2.081581	-0.012834	0.129867	2.211680	-0.011353	0.237412	2.211680	-0.007898	0.237412	1.821383	-0.006417	0.199116	1.691284	-0.003949	0.151251	1.561186	-0.049362	1.104571	11.577128	0.000000	0.000000	20.740443	-1.956926	10.270661	-2.107880	-16.806818	4.650935	130.475660	44.798639	3.137114	28.147875	1.390758	-9.806577	-7.891338	94.255432	86.520643	-10.987975	11.112953
2.129630	-0.417997	2.015449	80.175207	0.363738	0.833336	0.639709	0.652044	-0.755026	8.840109	4.963179	0.086624	32.263932	1.751178	0.000000	1.539884	-4.134125	-19.144645	8.736866	0.152487	38.891396	16.747399	0.000000	0.002433	0.110146	2.078978	0.004519	0.146495	2.208914	0.003997	0.267810	2.208914	0.002781	0.267810	1.819105	0.002259	0.224610	1.689169	0.001390	0.170617	1.559233	0.017379	1.245997	11.562650	0.000000	0.000000	20.676827	-2.136610	10.653593	-2.439704	-17.033238	5.313634	130.604369	43.685969	4.474844	27.413833	1.220668	-9.889537	-7.173919	94.874120	86.593576	-11.876062	12.870570
2.148148	-0.349670	1.905497	80.408535	0.363651	0.833306	0.639100	0.641689	-0.640285	8.973399	4.867252	0.084950	32.104333	1.278259	0.000000	1.613784	-4.205100	-18.821707	8.632765	0.150670	38.897531	16.668544	0.000000	0.011572	0.123471	2.076747	0.021491	0.164216	2.206544	0.019012	0.300207	2.206544	0.013226	0.300207	1.817154	0.010746	0.251782	1.687357	0.006613	0.191256	1.557561	0.082661	1.396726	11.550246	0.000000	0.000000	20.673443	-2.307304	11.078359	-2.808514	-17.269221	5.884048	130.783751	43.617018	5.725113	26.523432	1.129292	-9.985245	-6.432729	95.427933	86.730789	-12.771022	14.653242
2.166667	-0.287935	1.794629	80.617656	0.363552	0.833298	0.638494	0.632673	-0.532823	9.190193	4.788250	0.083571	31.884061	0.730473	0.000000	1.676184	-4.257089	-18.444863	8.499940	0.148352	38.872374	16.511822	0.000000	0.020141	0.136179	2.082729	0.037404	0.181118	2.212899	0.033090	0.331106	2.212899	0.023019	0.331106	1.822388	0.018703	0.277697	1.692217	0.011509	0.210942	1.562046	0.143867	1.540486	11.583512	0.000000	0.000000	20.759645	-2.462108	11.502471	-3.235821	-17.481447	6.331677	131.017039	44.483154	6.825621	25.503650	1.131989	-10.087848	-5.658608	95.895713	86.925133	-13.693687	16.341052
2.185185	-0.241144	1.674731	80.808807	0.363468	0.833280	0.637916	0.640987	-0.434640	9.501263	4.730815	0.082568	31.621750	0.071250	0.000000	1.747321	-4.294929	-18.079980	8.364115	0.145981	38.832053	16.349513	0.000000	0.029158	0.146672	2.093581	0.054150	0.195073	2.224429	0.047904	0.356617	2.224429	0.033325	0.356617	1.831883	0.027076	0.299093	1.701034	0.016661	0.227194	1.570185	0.208276	1.659178	11.643868	0.000000	0.000000	20.966866	-2.590858	11.893043	-3.707999	-17.660547	6.684613	131.356878	46.548268	7.737429	24.551785	1.216007	-10.199031	-4.897830	96.271167	87.156255	-14.518716	17.824173
2.203704	-0.216168	1.548739	80.969173	0.363425	0.833242	0.637371	0.661623	-0.351648	9.953981	4.674890	0.081592	31.321434	-0.755223	0.000000	1.824243	-4.314170	-17.775309	8.229561	0.143633	38.784144	16.226699	0.000000	0.038266	0.154021	2.113854	0.071063	0.204848	2.245970	0.062867	0.374486	2.245970	0.043734	0.374486	1.849622	0.035533	0.314079	1.717506	0.021865	0.238578	1.585390	0.273327	1.742313	11.756620	0.000000	0.000000	21.305852	-2.696015	12.246176	-4.247526	-17.776201	6.936531	131.825549	49.510466	8.311769	23.790482	1.386158	-10.329238	-4.123538	96.532696	87.392641	-15.285314	18.988247
2.222222	-0.197327	1.418043	81.120308	0.363375	0.833181	0.636868	0.702318	-0.278934	10.275057	4.641196	0.081004	31.058280	-1.427669	0.000000	1.911619	-4.326645	-17.435679	8.105603	0.141469	38.729996	16.058939	0.000000	0.047581	0.160392	2.134794	0.088363	0.213322	2.268218	0.078171	0.389978	2.268218	0.054381	0.389978	1.867945	0.044184	0.327072	1.734520	0.027188	0.248448	1.601095	0.339868	1.814389	11.873083	0.000000	0.000000	21.750948	-2.773132	12.588271	-4.816083	-17.845502	7.062204	132.328489	52.162630	8.827767	23.201080	1.601388	-10.448067	-3.397587	96.704649	87.633135	-15.965665	19.838968
2.240741	-0.182008	1.296792	81.234116	0.363347	0.833104	0.636444	0.760232	-0.219861	10.404183	4.641278	0.081006	30.868080	-1.837193	0.000000	1.992719	-4.337870	-17.149433	8.000421	0.139634	38.676573	15.904271	0.000000	0.055459	0.165575	2.159565	0.102993	0.220214	2.294538	0.091114	0.402579	2.294538	0.063384	0.402579	1.889620	0.051499	0.337640	1.754647	0.031689	0.256475	1.619674	0.396140	1.873015	12.010854	0.000000	0.000000	22.252658	-2.820939	12.880315	-5.353747	-17.881635	7.105126	132.759878	53.388995	9.384882	22.959719	1.842055	-10.563404	-2.707927	96.792346	87.809424	-16.636788	20.318585
2.259259	-0.170237	1.183758	81.293002	0.363356	0.832999	0.636162	0.847634	-0.169900	10.424722	4.686187	0.081789	30.737773	-2.086965	0.000000	2.071114	-4.350570	-16.949167	7.920928	0.138246	38.627256	15.785034	0.000000	0.061469	0.170034	2.191657	0.114154	0.226145	2.328636	0.100987	0.413421	2.328636	0.070253	0.413421	1.917700	0.057080	0.346733	1.780721	0.035123	0.263383	1.643743	0.439065	1.923459	12.189339	0.000000	0.000000	22.813740	-2.850602	13.150438	-5.839605	-17.900052	7.113429	133.141341	53.629614	9.770624	22.986433	2.099456	-10.681052	-2.056775	96.828444	87.937376	-17.328126	20.588573
2.277778	-0.159052	1.100285	81.343365	0.363339	0.832893	0.635965	0.916083	-0.133659	10.314497	4.735884	0.082657	30.656040	-2.167921	0.000000	2.126460	-4.358440	-16.744308	7.860313	0.137188	38.578030	15.656209	0.000000	0.065044	0.173789	2.219467	0.120793	0.231140	2.358184	0.106861	0.422552	2.358184	0.074339	0.422552	1.942034	0.060400	0.354391	1.803317	0.037166	0.269200	1.664600	0.464603	1.965941	12.344011	0.000000	0.000000	23.341229	-2.864609	13.358291	-6.234848	-17.903941	7.091469	133.419651	53.010992	10.153664	23.279629	2.334556	-10.795486	-1.472755	96.805753	88.008543	-18.022918	20.562817
2.296296	-0.139311	1.035650	81.350558	0.363316	0.832763	0.635861	0.985532	-0.100552	10.119956	4.804778	0.083859	30.633109	-2.076829	0.000000	2.167931	-4.377202	-16.618077	7.830618	0.136670	38.554176	15.560633	0.000000	0.068236	0.178921	2.246525	0.126721	0.237965	2.386933	0.112105	0.435028	2.386933	0.077987	0.435028	1.965709	0.063364	0.364856	1.825302	0.038990	0.277149	1.684894	0.487404	2.023990	12.494498	0.000000	0.000000	23.809992	-2.868531	13.539046	-6.519414	-17.914807	7.063180	133.614552	51.685535	10.416685	23.825429	2.521166	-10.909122	-0.971096	96.770567	88.062685	-18.738452	20.423169
